<svg xmlns="http://www.w3.org/2000/svg" xmlns:xlink="http://www.w3.org/1999/xlink" width="320" zoomAndPan="magnify" viewBox="0 0 240 239.999995" height="320" preserveAspectRatio="xMidYMid meet" version="1.2"><defs><clipPath id="c5c6741434"><path d="M 15.183594 18.882812 L 221.6875 18.882812 L 221.6875 225.382812 L 15.183594 225.382812 Z M 15.183594 18.882812 "/></clipPath><clipPath id="08b1fc0039"><path d="M 118.4375 18.882812 C 61.410156 18.882812 15.183594 65.109375 15.183594 122.132812 C 15.183594 179.15625 61.410156 225.382812 118.4375 225.382812 C 175.460938 225.382812 221.6875 179.15625 221.6875 122.132812 C 221.6875 65.109375 175.460938 18.882812 118.4375 18.882812 Z M 118.4375 18.882812 "/></clipPath><clipPath id="1fedeea248"><path d="M 82.4375 31.089844 L 154.546875 31.089844 L 154.546875 99.714844 L 82.4375 99.714844 Z M 82.4375 31.089844 "/></clipPath><clipPath id="40211e57c3"><path d="M 118.4375 31.089844 L 126.933594 57.300781 L 154.4375 57.300781 L 132.1875 73.503906 L 140.683594 99.714844 L 118.4375 83.515625 L 96.1875 99.714844 L 104.683594 73.503906 L 82.4375 57.300781 L 109.9375 57.300781 Z M 118.4375 31.089844 "/></clipPath></defs><g id="5ab8070af4"><rect x="0" width="240" y="0" height="239.999995" style="fill:#ffffff;fill-opacity:1;stroke:none;"/><rect x="0" width="240" y="0" height="239.999995" style="fill:#ffffff;fill-opacity:1;stroke:none;"/><g clip-rule="nonzero" clip-path="url(#c5c6741434)"><g clip-rule="nonzero" clip-path="url(#08b1fc0039)"><path style=" stroke:none;fill-rule:nonzero;fill:#ff3131;fill-opacity:1;" d="M 15.183594 18.882812 L 221.6875 18.882812 L 221.6875 225.382812 L 15.183594 225.382812 Z M 15.183594 18.882812 "/></g></g><g clip-rule="nonzero" clip-path="url(#1fedeea248)"><g clip-rule="nonzero" clip-path="url(#40211e57c3)"><path style=" stroke:none;fill-rule:nonzero;fill:#ffffff;fill-opacity:1;" d="M 82.4375 31.089844 L 154.546875 31.089844 L 154.546875 99.714844 L 82.4375 99.714844 Z M 82.4375 31.089844 "/></g></g><g style="fill:#000000;fill-opacity:1;"><g transform="translate(43.647657, 132.775012)"><path style="stroke:none" d="M 0.640625 0 L 0.640625 -14.609375 L 3.65625 -14.609375 L 5 -7.609375 L 5 -14.609375 L 7.8125 -14.609375 L 7.8125 0 L 4.96875 0 L 3.5 -7.3125 L 3.5 0 Z M 0.640625 0 "/></g></g><g style="fill:#000000;fill-opacity:1;"><g transform="translate(52.10975, 132.775012)"><path style="stroke:none" d="M 0.640625 0 L 0.640625 -14.609375 L 6.5 -14.609375 L 6.5 -11.78125 L 3.625 -11.78125 L 3.625 -8.9375 L 6.375 -8.9375 L 6.375 -6.1875 L 3.625 -6.1875 L 3.625 -2.84375 L 6.6875 -2.84375 L 6.6875 0 Z M 0.640625 0 "/></g></g><g style="fill:#000000;fill-opacity:1;"><g transform="translate(59.110512, 132.775012)"><path style="stroke:none" d="M 1.78125 0 L 0.21875 -14.609375 L 3.078125 -14.609375 L 3.890625 -5.390625 L 4.703125 -14.609375 L 7.421875 -14.609375 L 8.21875 -5.390625 L 9 -14.609375 L 11.890625 -14.609375 L 10.28125 0 L 6.78125 0 L 6.046875 -7.03125 L 5.359375 0 Z M 1.78125 0 "/></g></g><g style="fill:#000000;fill-opacity:1;"><g transform="translate(71.208919, 132.775012)"><path style="stroke:none" d=""/></g></g><g style="fill:#000000;fill-opacity:1;"><g transform="translate(75.185077, 132.775012)"><path style="stroke:none" d="M 0.640625 -14.609375 L 4.671875 -14.609375 C 5.710938 -14.609375 6.492188 -14.316406 7.015625 -13.734375 C 7.535156 -13.160156 7.800781 -12.304688 7.8125 -11.171875 L 7.859375 -4.328125 C 7.867188 -2.890625 7.617188 -1.804688 7.109375 -1.078125 C 6.597656 -0.359375 5.753906 0 4.578125 0 L 0.640625 0 Z M 4.09375 -2.578125 C 4.625 -2.578125 4.890625 -2.835938 4.890625 -3.359375 L 4.890625 -10.890625 C 4.890625 -11.222656 4.863281 -11.472656 4.8125 -11.640625 C 4.769531 -11.804688 4.675781 -11.914062 4.53125 -11.96875 C 4.394531 -12.019531 4.1875 -12.046875 3.90625 -12.046875 L 3.59375 -12.046875 L 3.59375 -2.578125 Z M 4.09375 -2.578125 "/></g></g><g style="fill:#000000;fill-opacity:1;"><g transform="translate(83.562209, 132.775012)"><path style="stroke:none" d="M 4.125 0.140625 C 2.945312 0.140625 2.050781 -0.21875 1.4375 -0.9375 C 0.832031 -1.65625 0.53125 -2.671875 0.53125 -3.984375 L 0.53125 -10.9375 C 0.53125 -12.1875 0.832031 -13.128906 1.4375 -13.765625 C 2.050781 -14.410156 2.945312 -14.734375 4.125 -14.734375 C 5.3125 -14.734375 6.207031 -14.410156 6.8125 -13.765625 C 7.425781 -13.128906 7.734375 -12.1875 7.734375 -10.9375 L 7.734375 -3.984375 C 7.734375 -2.660156 7.425781 -1.640625 6.8125 -0.921875 C 6.207031 -0.210938 5.3125 0.140625 4.125 0.140625 Z M 4.125 -2.546875 C 4.382812 -2.546875 4.5625 -2.660156 4.65625 -2.890625 C 4.75 -3.117188 4.796875 -3.4375 4.796875 -3.84375 L 4.796875 -10.984375 C 4.796875 -11.296875 4.75 -11.550781 4.65625 -11.75 C 4.570312 -11.945312 4.398438 -12.046875 4.140625 -12.046875 C 3.660156 -12.046875 3.421875 -11.679688 3.421875 -10.953125 L 3.421875 -3.828125 C 3.421875 -3.410156 3.46875 -3.09375 3.5625 -2.875 C 3.664062 -2.65625 3.851562 -2.546875 4.125 -2.546875 Z M 4.125 -2.546875 "/></g></g><g style="fill:#000000;fill-opacity:1;"><g transform="translate(91.820391, 132.775012)"><path style="stroke:none" d="M 4.125 0.140625 C 2.945312 0.140625 2.050781 -0.21875 1.4375 -0.9375 C 0.832031 -1.65625 0.53125 -2.671875 0.53125 -3.984375 L 0.53125 -10.9375 C 0.53125 -12.1875 0.832031 -13.128906 1.4375 -13.765625 C 2.050781 -14.410156 2.945312 -14.734375 4.125 -14.734375 C 5.3125 -14.734375 6.207031 -14.410156 6.8125 -13.765625 C 7.425781 -13.128906 7.734375 -12.1875 7.734375 -10.9375 L 7.734375 -3.984375 C 7.734375 -2.660156 7.425781 -1.640625 6.8125 -0.921875 C 6.207031 -0.210938 5.3125 0.140625 4.125 0.140625 Z M 4.125 -2.546875 C 4.382812 -2.546875 4.5625 -2.660156 4.65625 -2.890625 C 4.75 -3.117188 4.796875 -3.4375 4.796875 -3.84375 L 4.796875 -10.984375 C 4.796875 -11.296875 4.75 -11.550781 4.65625 -11.75 C 4.570312 -11.945312 4.398438 -12.046875 4.140625 -12.046875 C 3.660156 -12.046875 3.421875 -11.679688 3.421875 -10.953125 L 3.421875 -3.828125 C 3.421875 -3.410156 3.46875 -3.09375 3.5625 -2.875 C 3.664062 -2.65625 3.851562 -2.546875 4.125 -2.546875 Z M 4.125 -2.546875 "/></g></g><g style="fill:#000000;fill-opacity:1;"><g transform="translate(100.078573, 132.775012)"><path style="stroke:none" d="M 0.640625 -14.609375 L 5.140625 -14.609375 C 5.847656 -14.609375 6.394531 -14.445312 6.78125 -14.125 C 7.175781 -13.800781 7.441406 -13.347656 7.578125 -12.765625 C 7.710938 -12.179688 7.78125 -11.429688 7.78125 -10.515625 C 7.78125 -9.691406 7.671875 -9.046875 7.453125 -8.578125 C 7.242188 -8.117188 6.875 -7.796875 6.34375 -7.609375 C 6.78125 -7.523438 7.097656 -7.304688 7.296875 -6.953125 C 7.492188 -6.597656 7.59375 -6.125 7.59375 -5.53125 L 7.5625 0 L 4.703125 0 L 4.703125 -5.71875 C 4.703125 -6.125 4.625 -6.378906 4.46875 -6.484375 C 4.3125 -6.597656 4.023438 -6.65625 3.609375 -6.65625 L 3.609375 0 L 0.640625 0 Z M 4.3125 -9.203125 C 4.726562 -9.203125 4.9375 -9.640625 4.9375 -10.515625 C 4.9375 -10.898438 4.914062 -11.1875 4.875 -11.375 C 4.84375 -11.570312 4.78125 -11.707031 4.6875 -11.78125 C 4.601562 -11.863281 4.472656 -11.90625 4.296875 -11.90625 L 3.625 -11.90625 L 3.625 -9.203125 Z M 4.3125 -9.203125 "/></g></g><g style="fill:#000000;fill-opacity:1;"><g transform="translate(108.183828, 132.775012)"><path style="stroke:none" d=""/></g></g><g style="fill:#000000;fill-opacity:1;"><g transform="translate(112.159985, 132.775012)"><path style="stroke:none" d="M 0.515625 0 L 0.515625 -14.609375 L 3.328125 -14.609375 L 3.328125 0 Z M 0.515625 0 "/></g></g><g style="fill:#000000;fill-opacity:1;"><g transform="translate(116.017205, 132.775012)"><path style="stroke:none" d="M 0.640625 0 L 0.640625 -14.609375 L 3.65625 -14.609375 L 5 -7.609375 L 5 -14.609375 L 7.8125 -14.609375 L 7.8125 0 L 4.96875 0 L 3.5 -7.3125 L 3.5 0 Z M 0.640625 0 "/></g></g><g style="fill:#000000;fill-opacity:1;"><g transform="translate(124.479298, 132.775012)"><path style="stroke:none" d="M 4.109375 0.140625 C 2.785156 0.140625 1.828125 -0.1875 1.234375 -0.84375 C 0.648438 -1.507812 0.359375 -2.570312 0.359375 -4.03125 L 0.359375 -5.453125 L 3.234375 -5.453125 L 3.234375 -3.640625 C 3.234375 -2.910156 3.460938 -2.546875 3.921875 -2.546875 C 4.179688 -2.546875 4.363281 -2.625 4.46875 -2.78125 C 4.570312 -2.9375 4.625 -3.191406 4.625 -3.546875 C 4.625 -4.023438 4.566406 -4.421875 4.453125 -4.734375 C 4.335938 -5.046875 4.191406 -5.304688 4.015625 -5.515625 C 3.835938 -5.722656 3.523438 -6.050781 3.078125 -6.5 L 1.8125 -7.75 C 0.84375 -8.707031 0.359375 -9.757812 0.359375 -10.90625 C 0.359375 -12.15625 0.644531 -13.101562 1.21875 -13.75 C 1.789062 -14.40625 2.625 -14.734375 3.71875 -14.734375 C 5.03125 -14.734375 5.972656 -14.382812 6.546875 -13.6875 C 7.128906 -12.988281 7.421875 -11.898438 7.421875 -10.421875 L 4.453125 -10.421875 L 4.4375 -11.421875 C 4.4375 -11.617188 4.378906 -11.769531 4.265625 -11.875 C 4.160156 -11.988281 4.015625 -12.046875 3.828125 -12.046875 C 3.597656 -12.046875 3.425781 -11.984375 3.3125 -11.859375 C 3.195312 -11.734375 3.140625 -11.566406 3.140625 -11.359375 C 3.140625 -10.878906 3.414062 -10.382812 3.96875 -9.875 L 5.65625 -8.25 C 6.050781 -7.863281 6.378906 -7.492188 6.640625 -7.140625 C 6.898438 -6.796875 7.109375 -6.390625 7.265625 -5.921875 C 7.429688 -5.453125 7.515625 -4.894531 7.515625 -4.25 C 7.515625 -2.8125 7.25 -1.71875 6.71875 -0.96875 C 6.195312 -0.226562 5.328125 0.140625 4.109375 0.140625 Z M 4.109375 0.140625 "/></g></g><g style="fill:#000000;fill-opacity:1;"><g transform="translate(132.312675, 132.775012)"><path style="stroke:none" d="M 1.90625 0 L 1.90625 -11.796875 L 0.171875 -11.796875 L 0.171875 -14.609375 L 6.5625 -14.609375 L 6.5625 -11.796875 L 4.828125 -11.796875 L 4.828125 0 Z M 1.90625 0 "/></g></g><g style="fill:#000000;fill-opacity:1;"><g transform="translate(139.041572, 132.775012)"><path style="stroke:none" d="M 0.25 0 L 1.671875 -14.609375 L 6.609375 -14.609375 L 8 0 L 5.234375 0 L 5.03125 -2.359375 L 3.265625 -2.359375 L 3.09375 0 Z M 3.484375 -4.6875 L 4.8125 -4.6875 L 4.171875 -12.125 L 4.03125 -12.125 Z M 3.484375 -4.6875 "/></g></g><g style="fill:#000000;fill-opacity:1;"><g transform="translate(147.282759, 132.775012)"><path style="stroke:none" d="M 0.640625 0 L 0.640625 -14.609375 L 3.5625 -14.609375 L 3.5625 -2.484375 L 6.578125 -2.484375 L 6.578125 0 Z M 0.640625 0 "/></g></g><g style="fill:#000000;fill-opacity:1;"><g transform="translate(154.028639, 132.775012)"><path style="stroke:none" d="M 0.640625 0 L 0.640625 -14.609375 L 3.5625 -14.609375 L 3.5625 -2.484375 L 6.578125 -2.484375 L 6.578125 0 Z M 0.640625 0 "/></g></g><g style="fill:#000000;fill-opacity:1;"><g transform="translate(160.774519, 132.775012)"><path style="stroke:none" d="M 0.25 0 L 1.671875 -14.609375 L 6.609375 -14.609375 L 8 0 L 5.234375 0 L 5.03125 -2.359375 L 3.265625 -2.359375 L 3.09375 0 Z M 3.484375 -4.6875 L 4.8125 -4.6875 L 4.171875 -12.125 L 4.03125 -12.125 Z M 3.484375 -4.6875 "/></g></g><g style="fill:#000000;fill-opacity:1;"><g transform="translate(169.015706, 132.775012)"><path style="stroke:none" d="M 1.90625 0 L 1.90625 -11.796875 L 0.171875 -11.796875 L 0.171875 -14.609375 L 6.5625 -14.609375 L 6.5625 -11.796875 L 4.828125 -11.796875 L 4.828125 0 Z M 1.90625 0 "/></g></g><g style="fill:#000000;fill-opacity:1;"><g transform="translate(175.744603, 132.775012)"><path style="stroke:none" d="M 0.515625 0 L 0.515625 -14.609375 L 3.328125 -14.609375 L 3.328125 0 Z M 0.515625 0 "/></g></g><g style="fill:#000000;fill-opacity:1;"><g transform="translate(179.601822, 132.775012)"><path style="stroke:none" d="M 4.125 0.140625 C 2.945312 0.140625 2.050781 -0.21875 1.4375 -0.9375 C 0.832031 -1.65625 0.53125 -2.671875 0.53125 -3.984375 L 0.53125 -10.9375 C 0.53125 -12.1875 0.832031 -13.128906 1.4375 -13.765625 C 2.050781 -14.410156 2.945312 -14.734375 4.125 -14.734375 C 5.3125 -14.734375 6.207031 -14.410156 6.8125 -13.765625 C 7.425781 -13.128906 7.734375 -12.1875 7.734375 -10.9375 L 7.734375 -3.984375 C 7.734375 -2.660156 7.425781 -1.640625 6.8125 -0.921875 C 6.207031 -0.210938 5.3125 0.140625 4.125 0.140625 Z M 4.125 -2.546875 C 4.382812 -2.546875 4.5625 -2.660156 4.65625 -2.890625 C 4.75 -3.117188 4.796875 -3.4375 4.796875 -3.84375 L 4.796875 -10.984375 C 4.796875 -11.296875 4.75 -11.550781 4.65625 -11.75 C 4.570312 -11.945312 4.398438 -12.046875 4.140625 -12.046875 C 3.660156 -12.046875 3.421875 -11.679688 3.421875 -10.953125 L 3.421875 -3.828125 C 3.421875 -3.410156 3.46875 -3.09375 3.5625 -2.875 C 3.664062 -2.65625 3.851562 -2.546875 4.125 -2.546875 Z M 4.125 -2.546875 "/></g></g><g style="fill:#000000;fill-opacity:1;"><g transform="translate(187.860004, 132.775012)"><path style="stroke:none" d="M 0.640625 0 L 0.640625 -14.609375 L 3.65625 -14.609375 L 5 -7.609375 L 5 -14.609375 L 7.8125 -14.609375 L 7.8125 0 L 4.96875 0 L 3.5 -7.3125 L 3.5 0 Z M 0.640625 0 "/></g></g></g></svg>