<?xml version="1.0" encoding="utf-8"?>
<!-- Generator: Adobe Illustrator 17.0.0, SVG Export Plug-In . SVG Version: 6.00 Build 0)  -->
<!DOCTYPE svg PUBLIC "-//W3C//DTD SVG 1.1//EN" "http://www.w3.org/Graphics/SVG/1.1/DTD/svg11.dtd">
<svg version="1.1" id="Layer_1" xmlns="http://www.w3.org/2000/svg" xmlns:xlink="http://www.w3.org/1999/xlink" x="0px" y="0px"
	 width="707.87px" height="483.681px" viewBox="0 0 707.87 483.681" enable-background="new 0 0 707.87 483.681"
	 xml:space="preserve">
<polygon fill="#EA0104" points="569.5,104.083 569.5,77.333 354,0 135.25,74.833 135.25,101.833 160.5,101.833 160.75,92.083 
	354.25,26.833 544.25,94.583 544.25,104.083 "/>
<g>
	<path fill="#EA0104" d="M569.5,113.083l-34.25-0.5l-0.25-11.5l-182.625-64L170.5,98.833l-0.25,10.833h-35v9.667l11.417,5.333
		v152.917H202l1-164.5l7,5.25v159.25h8.667V117L486,119v158.583h9.667V122l8.333-8.917v164.5h53.75l-1-154h12.75V113.083z
		 M322.333,97.5h-42.75v-8.917h42.75V97.5z M374.583,97.5h-42.75v-8.917h42.75V97.5z M426.208,97.5h-42.75v-8.917h42.75V97.5z"/>
</g>
<rect x="227.5" y="125.708" fill="#EA0104" width="13" height="11.5"/>
<rect x="247.5" y="125.708" fill="#EA0104" width="13" height="11.5"/>
<rect x="227.5" y="143.083" fill="#EA0104" width="13" height="11.5"/>
<rect x="247.5" y="143.083" fill="#EA0104" width="13" height="11.5"/>
<g>
	<g>
		<path fill="#EA0104" d="M260.667,192.833h-33.833V164.5h33.833V192.833z M229.833,189.833h27.833V167.5h-27.833V189.833z"/>
	</g>
</g>
<g>
	<g>
		<path fill="#EA0104" d="M260.667,230.583h-33.833V202.25h33.833V230.583z M229.833,227.583h27.833V205.25h-27.833V227.583z"/>
	</g>
</g>
<g>
	<g>
		<path fill="#EA0104" d="M260.667,268.833h-33.833V240.5h33.833V268.833z M229.833,265.833h27.833V243.5h-27.833V265.833z"/>
	</g>
</g>
<rect x="271.25" y="125.708" fill="#EA0104" width="13" height="11.5"/>
<rect x="291.25" y="125.708" fill="#EA0104" width="13" height="11.5"/>
<rect x="271.25" y="143.083" fill="#EA0104" width="13" height="11.5"/>
<rect x="291.25" y="143.083" fill="#EA0104" width="13" height="11.5"/>
<g>
	<g>
		<path fill="#EA0104" d="M304.417,192.833h-33.833V164.5h33.833V192.833z M273.583,189.833h27.833V167.5h-27.833V189.833z"/>
	</g>
</g>
<g>
	<g>
		<path fill="#EA0104" d="M304.417,230.583h-33.833V202.25h33.833V230.583z M273.583,227.583h27.833V205.25h-27.833V227.583z"/>
	</g>
</g>
<g>
	<g>
		<path fill="#EA0104" d="M304.417,268.833h-33.833V240.5h33.833V268.833z M273.583,265.833h27.833V243.5h-27.833V265.833z"/>
	</g>
</g>
<rect x="314.5" y="125.708" fill="#EA0104" width="13" height="11.5"/>
<rect x="334.5" y="125.708" fill="#EA0104" width="13" height="11.5"/>
<rect x="314.5" y="143.083" fill="#EA0104" width="13" height="11.5"/>
<rect x="334.5" y="143.083" fill="#EA0104" width="13" height="11.5"/>
<g>
	<g>
		<path fill="#EA0104" d="M347.667,192.833h-33.833V164.5h33.833V192.833z M316.833,189.833h27.833V167.5h-27.833V189.833z"/>
	</g>
</g>
<g>
	<g>
		<path fill="#EA0104" d="M347.667,230.583h-33.833V202.25h33.833V230.583z M316.833,227.583h27.833V205.25h-27.833V227.583z"/>
	</g>
</g>
<g>
	<g>
		<path fill="#EA0104" d="M347.667,268.833h-33.833V240.5h33.833V268.833z M316.833,265.833h27.833V243.5h-27.833V265.833z"/>
	</g>
</g>
<rect x="356.833" y="125.708" fill="#EA0104" width="13" height="11.5"/>
<rect x="376.833" y="125.708" fill="#EA0104" width="13" height="11.5"/>
<rect x="356.833" y="143.083" fill="#EA0104" width="13" height="11.5"/>
<rect x="376.833" y="143.083" fill="#EA0104" width="13" height="11.5"/>
<g>
	<g>
		<path fill="#EA0104" d="M390,192.833h-33.833V164.5H390V192.833z M359.167,189.833H387V167.5h-27.833V189.833z"/>
	</g>
</g>
<g>
	<g>
		<path fill="#EA0104" d="M390,230.583h-33.833V202.25H390V230.583z M359.167,227.583H387V205.25h-27.833V227.583z"/>
	</g>
</g>
<g>
	<g>
		<path fill="#EA0104" d="M390,268.833h-33.833V240.5H390V268.833z M359.167,265.833H387V243.5h-27.833V265.833z"/>
	</g>
</g>
<rect x="399.833" y="125.708" fill="#EA0104" width="13" height="11.5"/>
<rect x="419.833" y="125.708" fill="#EA0104" width="13" height="11.5"/>
<rect x="399.833" y="143.083" fill="#EA0104" width="13" height="11.5"/>
<rect x="419.833" y="143.083" fill="#EA0104" width="13" height="11.5"/>
<g>
	<g>
		<path fill="#EA0104" d="M433,192.833h-33.833V164.5H433V192.833z M402.167,189.833H430V167.5h-27.833V189.833z"/>
	</g>
</g>
<g>
	<g>
		<path fill="#EA0104" d="M433,230.583h-33.833V202.25H433V230.583z M402.167,227.583H430V205.25h-27.833V227.583z"/>
	</g>
</g>
<g>
	<g>
		<path fill="#EA0104" d="M433,268.833h-33.833V240.5H433V268.833z M402.167,265.833H430V243.5h-27.833V265.833z"/>
	</g>
</g>
<rect x="443.5" y="125.708" fill="#EA0104" width="13" height="11.5"/>
<rect x="463.5" y="125.708" fill="#EA0104" width="13" height="11.5"/>
<rect x="443.5" y="143.083" fill="#EA0104" width="13" height="11.5"/>
<rect x="463.5" y="143.083" fill="#EA0104" width="13" height="11.5"/>
<g>
	<g>
		<path fill="#EA0104" d="M476.667,192.833h-33.833V164.5h33.833V192.833z M445.833,189.833h27.833V167.5h-27.833V189.833z"/>
	</g>
</g>
<g>
	<g>
		<path fill="#EA0104" d="M476.667,230.583h-33.833V202.25h33.833V230.583z M445.833,227.583h27.833V205.25h-27.833V227.583z"/>
	</g>
</g>
<g>
	<g>
		<path fill="#EA0104" d="M476.667,268.833h-33.833V240.5h33.833V268.833z M445.833,265.833h27.833V243.5h-27.833V265.833z"/>
	</g>
</g>
<g>
	<g>
		<path fill="#EA0104" d="M65.945,377.347v36.363l-9.126,15.396H11.807v-120.38h43.312l8.817,15.396v31.085l-5.569,9.237
			L65.945,377.347z M44.6,377.933l-9.127-10.703l7.426-9.824v-25.073l-2.166-4.545h-8.354v82.11h10.209l2.012-4.546V377.933z"/>
		<path fill="#EA0104" d="M106.162,398.314H92.549v30.792h-19.49v-66.568l13.613-53.812h26.141l13.768,53.812v66.568h-20.418
			V398.314z M92.549,380.426h13.613v-17.155l-6.188-25.807h-2.012l-5.414,25.807V380.426z"/>
		<path fill="#EA0104" d="M134.004,324.121l9.9-15.396h32.484l-6.033,19.062h-14.23l-2.012,4.545v73.02l2.012,4.546h17.17
			l2.938,19.208h-33.103l-9.127-15.396V324.121z"/>
		<path fill="#EA0104" d="M233.93,308.726l-11.602,57.33l14.23,63.05h-20.418l-12.066-54.398h-1.701v54.398h-20.572v-120.38h20.572
			v50.146h1.701l9.9-50.146H233.93z"/>
		<path fill="#EA0104" d="M284.043,429.106l-9.126-15.396v-89.589l9.899-15.396h32.949l9.898,15.396v89.589l-9.28,15.396H284.043z
			 M297.037,327.787l-2.011,4.545v73.02l2.011,4.546h8.508l1.701-4.546v-73.02l-1.701-4.545H297.037z"/>
		<path fill="#EA0104" d="M353.959,429.106h-18.252v-120.38h18.871l12.529,48.826h0.773v-48.826h19.026v120.38h-17.324
			l-15.005-59.677h-0.619V429.106z"/>
		<path fill="#EA0104" d="M469.66,327.787h-10.673v101.318h-20.264V327.787h-12.221l6.188-19.062h43.157L469.66,327.787z"/>
		<path fill="#EA0104" d="M481.106,308.726h45.168l9.127,15.396v30.498l-7.58,12.17l7.58,12.903v41.056l5.104,8.357h-21.811
			l-4.486-8.357v-40.322l-9.281-10.851l9.281-12.17v-25.073l-2.166-4.545H501.68v101.318h-20.573V308.726z"/>
		<path fill="#EA0104" d="M577.473,398.314H563.86v30.792h-19.49v-66.568l13.612-53.812h26.142l13.768,53.812v66.568h-20.419
			V398.314z M563.86,380.426h13.612v-17.155l-6.188-25.807h-2.011l-5.414,25.807V380.426z"/>
		<path fill="#EA0104" d="M605.315,324.121l9.9-15.396h32.483l-6.032,19.062h-14.231l-2.011,4.545v73.02l2.011,4.546h17.17
			l2.939,19.208h-33.103l-9.127-15.396V324.121z"/>
		<path fill="#EA0104" d="M705.24,308.726l-11.602,57.33l14.231,63.05h-20.419l-12.065-54.398h-1.701v54.398h-20.573v-120.38h20.573
			v50.146h1.701l9.9-50.146H705.24z"/>
	</g>
</g>
<g>
	<g>
		<path d="M46.807,464.92h14.708v2.527c0,4.469-1.441,8.295-4.324,11.479c-2.869,3.17-6.33,4.755-10.384,4.755
			c-4.066,0-7.534-1.585-10.403-4.755c-2.883-3.184-4.323-7.01-4.323-11.479s1.44-8.288,4.323-11.458
			c2.869-3.169,6.337-4.754,10.403-4.754c2.764,0,5.323,0.792,7.68,2.377c2.343,1.585,4.152,3.741,5.429,6.468l-4.185,2.271
			c-0.856-1.871-2.087-3.349-3.692-4.434c-1.593-1.085-3.336-1.628-5.231-1.628c-2.776,0-5.146,1.093-7.106,3.277
			c-1.975,2.185-2.962,4.812-2.962,7.881c0,3.084,0.987,5.718,2.962,7.902c1.961,2.185,4.33,3.276,7.106,3.276
			c2.355,0,4.448-0.82,6.278-2.463c1.815-1.627,2.98-3.683,3.494-6.167h-9.772V464.92z"/>
		<path d="M87.694,451.792l11.943,31.268h-4.837l-3.454-9.017H80.528l-3.475,9.017h-4.856l11.983-31.268H87.694z M89.491,469.182
			l-3.554-9.272l-3.554,9.272H89.491z"/>
		<path d="M124.752,483.06l-9.378-14.478v14.478h-4.481v-31.268h9.516c2.316,0,4.198,0.899,5.646,2.698
			c1.329,1.628,2.033,3.605,2.112,5.933c0.092,2.798-0.572,4.997-1.994,6.596c-1.119,1.285-2.685,2.128-4.698,2.527l8.745,13.514
			H124.752z M117.368,464.985c2.935,0,4.797-0.442,5.587-1.328c0.539-0.613,0.783-1.627,0.73-3.041
			c-0.026-0.828-0.204-1.57-0.533-2.228c-0.553-1.156-1.468-1.734-2.744-1.734h-5.034v8.331H117.368z"/>
		<path d="M154.524,451.792l11.943,31.268h-4.837l-3.454-9.017h-10.818l-3.475,9.017h-4.856l11.983-31.268H154.524z
			 M156.321,469.182l-3.554-9.272l-3.554,9.272H156.321z"/>
		<path d="M191.878,464.92h14.707v2.527c0,4.469-1.441,8.295-4.323,11.479c-2.869,3.17-6.33,4.755-10.384,4.755
			c-4.067,0-7.535-1.585-10.404-4.755c-2.882-3.184-4.323-7.01-4.323-11.479s1.441-8.288,4.323-11.458
			c2.869-3.169,6.337-4.754,10.404-4.754c2.764,0,5.323,0.792,7.679,2.377c2.343,1.585,4.152,3.741,5.43,6.468l-4.186,2.271
			c-0.855-1.871-2.086-3.349-3.691-4.434c-1.593-1.085-3.337-1.628-5.231-1.628c-2.777,0-5.146,1.093-7.107,3.277
			c-1.974,2.185-2.961,4.812-2.961,7.881c0,3.084,0.987,5.718,2.961,7.902c1.961,2.185,4.33,3.276,7.107,3.276
			c2.355,0,4.448-0.82,6.277-2.463c1.816-1.627,2.981-3.683,3.494-6.167h-9.771V464.92z"/>
		<path d="M219.735,451.792h17.708v4.861h-13.227v8.31h13.227v4.861h-13.227v8.396h13.227v4.84h-17.708V451.792z"/>
		<path d="M282.36,451.792c3.962,0,7.357,1.528,10.188,4.583c2.803,3.056,4.204,6.732,4.204,11.029
			c0,4.313-1.401,8.003-4.204,11.072c-2.83,3.056-6.226,4.583-10.188,4.583h-8.331v-31.268H282.36z M282.36,478.198
			c2.725,0,5.054-1.057,6.989-3.17c1.947-2.099,2.922-4.64,2.922-7.624c0-2.955-0.975-5.482-2.922-7.581
			c-1.936-2.113-4.265-3.17-6.989-3.17h-3.85v21.545H282.36z"/>
		<path d="M323.841,451.385c4.014,0,7.442,1.578,10.285,4.733c2.843,3.127,4.265,6.903,4.265,11.329s-1.422,8.21-4.265,11.351
			c-2.843,3.155-6.271,4.732-10.285,4.732c-4.015,0-7.449-1.577-10.305-4.732c-2.843-3.141-4.265-6.925-4.265-11.351
			s1.422-8.202,4.265-11.329C316.392,452.963,319.826,451.385,323.841,451.385z M323.841,478.52c2.737,0,5.08-1.078,7.028-3.234
			c1.947-2.17,2.921-4.782,2.921-7.838c0-3.041-0.974-5.646-2.921-7.817c-1.948-2.155-4.291-3.233-7.028-3.233
			c-2.751,0-5.094,1.078-7.028,3.233c-1.961,2.171-2.941,4.776-2.941,7.817c0,3.056,0.98,5.668,2.941,7.838
			C318.747,477.442,321.09,478.52,323.841,478.52z"/>
		<path d="M365.853,451.385c4.014,0,7.442,1.578,10.285,4.733c2.843,3.127,4.265,6.903,4.265,11.329s-1.422,8.21-4.265,11.351
			c-2.843,3.155-6.271,4.732-10.285,4.732c-4.015,0-7.449-1.577-10.305-4.732c-2.843-3.141-4.265-6.925-4.265-11.351
			s1.422-8.202,4.265-11.329C358.403,452.963,361.838,451.385,365.853,451.385z M365.853,478.52c2.737,0,5.08-1.078,7.028-3.234
			c1.947-2.17,2.921-4.782,2.921-7.838c0-3.041-0.974-5.646-2.921-7.817c-1.948-2.155-4.291-3.233-7.028-3.233
			c-2.751,0-5.094,1.078-7.028,3.233c-1.961,2.171-2.941,4.776-2.941,7.817c0,3.056,0.98,5.668,2.941,7.838
			C360.759,477.442,363.102,478.52,365.853,478.52z"/>
		<path d="M407.569,483.06l-9.377-14.478v14.478h-4.481v-31.268h9.515c2.316,0,4.198,0.899,5.646,2.698
			c1.329,1.628,2.033,3.605,2.112,5.933c0.092,2.798-0.572,4.997-1.994,6.596c-1.118,1.285-2.685,2.128-4.698,2.527l8.745,13.514
			H407.569z M400.186,464.985c2.935,0,4.798-0.442,5.587-1.328c0.54-0.613,0.783-1.627,0.73-3.041
			c-0.026-0.828-0.204-1.57-0.533-2.228c-0.553-1.156-1.468-1.734-2.744-1.734h-5.033v8.331H400.186z"/>
		<path d="M456.079,456.397c-1.236,0-2.296,0.421-3.178,1.264c-0.869,0.828-1.303,1.835-1.303,3.02c0,1.186,0.342,2.056,1.026,2.612
			c0.632,0.515,1.974,1.086,4.027,1.714c2.553,0.757,4.396,1.585,5.527,2.484c2,1.57,3.001,3.819,3.001,6.746
			c0,2.556-0.889,4.74-2.665,6.553c-1.777,1.828-3.923,2.741-6.437,2.741s-4.658-0.913-6.436-2.741
			c-1.776-1.813-2.665-3.997-2.665-6.553h4.62c0,1.185,0.434,2.191,1.303,3.02c0.882,0.843,1.941,1.264,3.178,1.264
			c1.237,0,2.297-0.421,3.179-1.264c0.869-0.828,1.303-1.835,1.303-3.02c0-1.257-0.382-2.185-1.145-2.784
			c-0.619-0.485-1.948-1.035-3.988-1.649c-2.526-0.742-4.356-1.563-5.487-2.463c-1.975-1.556-2.962-3.776-2.962-6.66
			c0-2.556,0.889-4.747,2.665-6.575c1.777-1.813,3.922-2.72,6.436-2.72s4.659,0.907,6.437,2.72c1.776,1.828,2.665,4.02,2.665,6.575
			h-4.62c0-1.185-0.434-2.191-1.303-3.02C458.376,456.818,457.316,456.397,456.079,456.397z"/>
		<path d="M478.312,451.792h17.708v4.861h-13.227v8.31h13.227v4.861h-13.227v8.396h13.227v4.84h-17.708V451.792z"/>
		<path d="M523.206,483.06l-9.377-14.478v14.478h-4.481v-31.268h9.515c2.316,0,4.198,0.899,5.646,2.698
			c1.329,1.628,2.033,3.605,2.112,5.933c0.092,2.798-0.572,4.997-1.994,6.596c-1.118,1.285-2.685,2.128-4.698,2.527l8.745,13.514
			H523.206z M515.822,464.985c2.935,0,4.798-0.442,5.587-1.328c0.54-0.613,0.783-1.627,0.73-3.041
			c-0.026-0.828-0.204-1.57-0.533-2.228c-0.553-1.156-1.468-1.734-2.744-1.734h-5.033v8.331H515.822z"/>
		<path d="M547.904,483.06l-10.423-31.268h4.758l7.087,21.224l7.127-21.224h4.757l-10.463,31.268H547.904z"/>
		<path d="M573.058,451.792h4.462v31.268h-4.462V451.792z"/>
		<path d="M606.009,456.289c-2.764,0-5.119,1.093-7.067,3.277c-1.974,2.185-2.961,4.812-2.961,7.881
			c0,3.084,0.987,5.718,2.961,7.902c1.948,2.185,4.304,3.276,7.067,3.276c3.566,0,6.351-1.642,8.351-4.925l3.869,2.805
			c-1.368,2.242-3.132,3.998-5.29,5.269c-2.159,1.271-4.469,1.906-6.93,1.906c-4.04,0-7.502-1.585-10.384-4.755
			c-2.869-3.184-4.304-7.01-4.304-11.479s1.435-8.288,4.304-11.458c2.882-3.169,6.344-4.754,10.384-4.754
			c2.475,0,4.784,0.628,6.93,1.885c2.158,1.284,3.922,3.048,5.29,5.289l-3.869,2.784
			C612.359,457.925,609.575,456.289,606.009,456.289z"/>
		<path d="M631.439,451.792h17.708v4.861h-13.227v8.31h13.227v4.861h-13.227v8.396h13.227v4.84h-17.708V451.792z"/>
		<path d="M670.983,456.397c-1.236,0-2.296,0.421-3.178,1.264c-0.869,0.828-1.303,1.835-1.303,3.02c0,1.186,0.342,2.056,1.026,2.612
			c0.632,0.515,1.974,1.086,4.027,1.714c2.553,0.757,4.396,1.585,5.527,2.484c2,1.57,3.001,3.819,3.001,6.746
			c0,2.556-0.889,4.74-2.665,6.553c-1.777,1.828-3.923,2.741-6.437,2.741s-4.658-0.913-6.436-2.741
			c-1.776-1.813-2.665-3.997-2.665-6.553h4.62c0,1.185,0.434,2.191,1.303,3.02c0.882,0.843,1.941,1.264,3.178,1.264
			c1.237,0,2.297-0.421,3.179-1.264c0.869-0.828,1.303-1.835,1.303-3.02c0-1.257-0.382-2.185-1.145-2.784
			c-0.619-0.485-1.948-1.035-3.988-1.649c-2.526-0.742-4.356-1.563-5.487-2.463c-1.975-1.556-2.962-3.776-2.962-6.66
			c0-2.556,0.889-4.747,2.665-6.575c1.777-1.813,3.922-2.72,6.436-2.72s4.659,0.907,6.437,2.72c1.776,1.828,2.665,4.02,2.665,6.575
			h-4.62c0-1.185-0.434-2.191-1.303-3.02C673.28,456.818,672.221,456.397,670.983,456.397z"/>
	</g>
</g>
<rect x="0" y="274.083" width="705" height="16"/>
</svg>
