<svg xmlns="http://www.w3.org/2000/svg" xmlns:xlink="http://www.w3.org/1999/xlink" width="320" zoomAndPan="magnify" viewBox="0 0 240 239.999995" height="320" preserveAspectRatio="xMidYMid meet" version="1.2"><defs/><g id="595d8a0f86"><rect x="0" width="240" y="0" height="239.999995" style="fill:#ffffff;fill-opacity:1;stroke:none;"/><rect x="0" width="240" y="0" height="239.999995" style="fill:#ff3131;fill-opacity:1;stroke:none;"/><g style="fill:#ffffff;fill-opacity:1;"><g transform="translate(36.288172, 64.230521)"><path style="stroke:none" d="M 5.015625 -12.96875 L 2.21875 -10.90625 L 1.40625 -11.953125 L 4.234375 -14.015625 L 1.46875 -16.015625 L 2.265625 -17.125 L 5.03125 -15.078125 L 6.109375 -18.375 L 7.390625 -17.953125 L 6.34375 -14.640625 L 9.734375 -14.640625 L 9.734375 -13.328125 L 6.28125 -13.328125 L 7.359375 -10.078125 L 6.078125 -9.6875 Z M 5.015625 -12.96875 "/></g></g><g style="fill:#ffffff;fill-opacity:1;"><g transform="translate(47.245202, 64.230521)"><path style="stroke:none" d="M 5.53125 -14.609375 L 5.53125 -10.46875 L 11.84375 -10.46875 L 11.84375 -7.390625 L 5.53125 -7.390625 L 5.53125 -3.125 L 13.40625 -3.125 L 13.40625 0 L 1.9375 0 L 1.9375 -17.75 L 13.40625 -17.75 L 13.40625 -14.609375 Z M 5.53125 -14.609375 "/></g></g><g style="fill:#ffffff;fill-opacity:1;"><g transform="translate(61.696801, 64.230521)"><path style="stroke:none" d="M 20.453125 -17.75 L 20.453125 0 L 16.859375 0 L 16.859375 -13.71875 L 16.46875 -13.71875 L 13 -0.78125 L 9.390625 -0.78125 L 5.921875 -13.71875 L 5.53125 -13.71875 L 5.53125 0 L 1.9375 0 L 1.9375 -17.75 L 8.0625 -17.75 L 11.1875 -4.828125 L 14.328125 -17.75 Z M 20.453125 -17.75 "/></g></g><g style="fill:#ffffff;fill-opacity:1;"><g transform="translate(84.078513, 64.230521)"><path style="stroke:none" d="M 5.53125 -14.609375 L 5.53125 -10.46875 L 11.84375 -10.46875 L 11.84375 -7.390625 L 5.53125 -7.390625 L 5.53125 -3.125 L 13.40625 -3.125 L 13.40625 0 L 1.9375 0 L 1.9375 -17.75 L 13.40625 -17.75 L 13.40625 -14.609375 Z M 5.53125 -14.609375 "/></g></g><g style="fill:#ffffff;fill-opacity:1;"><g transform="translate(98.530111, 64.230521)"><path style="stroke:none" d="M 1.9375 -17.75 L 8.8125 -17.75 C 12.988281 -17.75 15.078125 -15.800781 15.078125 -11.90625 C 15.078125 -9.582031 14.207031 -7.875 12.46875 -6.78125 L 15 0 L 11.0625 0 L 9 -5.953125 L 5.53125 -5.953125 L 5.53125 0 L 1.9375 0 Z M 8.875 -9.03125 C 9.6875 -9.03125 10.3125 -9.285156 10.75 -9.796875 C 11.1875 -10.304688 11.40625 -11 11.40625 -11.875 C 11.40625 -12.738281 11.175781 -13.421875 10.71875 -13.921875 C 10.269531 -14.421875 9.632812 -14.671875 8.8125 -14.671875 L 5.53125 -14.671875 L 5.53125 -9.03125 Z M 8.875 -9.03125 "/></g></g><g style="fill:#ffffff;fill-opacity:1;"><g transform="translate(114.703382, 64.230521)"><path style="stroke:none" d="M 8.421875 0.3125 C 6.597656 0.3125 5.160156 -0.0078125 4.109375 -0.65625 C 3.054688 -1.300781 2.300781 -2.289062 1.84375 -3.625 C 1.394531 -4.96875 1.171875 -6.742188 1.171875 -8.953125 C 1.171875 -11.128906 1.40625 -12.878906 1.875 -14.203125 C 2.34375 -15.535156 3.09375 -16.507812 4.125 -17.125 C 5.164062 -17.75 6.554688 -18.0625 8.296875 -18.0625 C 9.910156 -18.0625 11.660156 -17.878906 13.546875 -17.515625 L 14.484375 -17.328125 L 14.375 -14.53125 C 12.351562 -14.757812 10.648438 -14.875 9.265625 -14.875 C 7.890625 -14.875 6.890625 -14.640625 6.265625 -14.171875 C 5.640625 -13.710938 5.25 -13.085938 5.09375 -12.296875 C 4.945312 -11.503906 4.875 -10.328125 4.875 -8.765625 C 4.875 -7.210938 4.976562 -6.019531 5.1875 -5.1875 C 5.394531 -4.351562 5.773438 -3.75 6.328125 -3.375 C 6.878906 -3 7.691406 -2.8125 8.765625 -2.8125 C 9.796875 -2.8125 10.519531 -2.847656 10.9375 -2.921875 L 10.9375 -6.359375 L 9.3125 -6.359375 L 9.3125 -9.5 L 14.484375 -9.5 L 14.484375 -0.28125 C 11.941406 0.113281 9.921875 0.3125 8.421875 0.3125 Z M 8.421875 0.3125 "/></g></g><g style="fill:#ffffff;fill-opacity:1;"><g transform="translate(130.641877, 64.230521)"><path style="stroke:none" d="M 5.53125 -14.609375 L 5.53125 -10.46875 L 11.84375 -10.46875 L 11.84375 -7.390625 L 5.53125 -7.390625 L 5.53125 -3.125 L 13.40625 -3.125 L 13.40625 0 L 1.9375 0 L 1.9375 -17.75 L 13.40625 -17.75 L 13.40625 -14.609375 Z M 5.53125 -14.609375 "/></g></g><g style="fill:#ffffff;fill-opacity:1;"><g transform="translate(145.093475, 64.230521)"><path style="stroke:none" d="M 16.15625 -17.75 L 16.15625 0 L 10.234375 0 L 5.796875 -14.609375 L 5.53125 -14.609375 L 5.53125 0 L 1.9375 0 L 1.9375 -17.75 L 8.015625 -17.75 L 12.296875 -3.125 L 12.546875 -3.125 L 12.546875 -17.75 Z M 16.15625 -17.75 "/></g></g><g style="fill:#ffffff;fill-opacity:1;"><g transform="translate(163.171007, 64.230521)"><path style="stroke:none" d="M 8.1875 0.3125 C 6.3125 0.3125 4.867188 -0.015625 3.859375 -0.671875 C 2.847656 -1.335938 2.15625 -2.316406 1.78125 -3.609375 C 1.40625 -4.910156 1.21875 -6.640625 1.21875 -8.796875 C 1.21875 -11.160156 1.421875 -13.003906 1.828125 -14.328125 C 2.242188 -15.648438 2.929688 -16.601562 3.890625 -17.1875 C 4.847656 -17.769531 6.1875 -18.0625 7.90625 -18.0625 C 9.488281 -18.0625 11.253906 -17.828125 13.203125 -17.359375 L 13.09375 -14.484375 C 11.375 -14.742188 9.972656 -14.875 8.890625 -14.875 C 7.796875 -14.875 6.96875 -14.695312 6.40625 -14.34375 C 5.851562 -14 5.46875 -13.429688 5.25 -12.640625 C 5.039062 -11.847656 4.9375 -10.734375 4.9375 -9.296875 L 4.9375 -8.328125 C 4.96875 -6.828125 5.070312 -5.707031 5.25 -4.96875 C 5.4375 -4.226562 5.800781 -3.691406 6.34375 -3.359375 C 6.882812 -3.035156 7.707031 -2.875 8.8125 -2.875 C 10 -2.875 11.425781 -2.992188 13.09375 -3.234375 L 13.171875 -0.28125 C 11.273438 0.113281 9.613281 0.3125 8.1875 0.3125 Z M 8.1875 0.3125 "/></g></g><g style="fill:#ffffff;fill-opacity:1;"><g transform="translate(177.335657, 64.230521)"><path style="stroke:none" d="M 5.484375 -7.171875 L 0 -17.75 L 4 -17.75 L 7.25 -10.671875 L 10.515625 -17.75 L 14.515625 -17.75 L 9.078125 -7.171875 L 9.078125 0 L 5.484375 0 Z M 5.484375 -7.171875 "/></g></g><g style="fill:#ffffff;fill-opacity:1;"><g transform="translate(191.995972, 64.230521)"><path style="stroke:none" d="M 4.953125 -12.46875 L 2.265625 -10.40625 L 1.046875 -11.953125 L 3.78125 -13.984375 L 1.125 -15.890625 L 2.328125 -17.53125 L 4.953125 -15.625 L 5.96875 -18.78125 L 7.9375 -18.140625 L 6.9375 -14.953125 L 10.15625 -14.953125 L 10.15625 -13.015625 L 6.9375 -13.015625 L 7.9375 -9.890625 L 6.03125 -9.3125 Z M 4.953125 -12.46875 "/></g></g><g style="fill:#ffffff;fill-opacity:1;"><g transform="translate(71.491295, 100.230519)"><path style="stroke:none" d="M 7.09375 0.3125 C 5.738281 0.3125 4.078125 0.101562 2.109375 -0.3125 L 1.171875 -0.5 L 1.546875 -3.28125 C 3.867188 -2.96875 5.648438 -2.8125 6.890625 -2.8125 C 8.734375 -2.8125 9.65625 -3.578125 9.65625 -5.109375 C 9.65625 -5.734375 9.410156 -6.191406 8.921875 -6.484375 C 8.429688 -6.785156 7.613281 -7.101562 6.46875 -7.4375 C 5.09375 -7.820312 4.007812 -8.25 3.21875 -8.71875 C 2.425781 -9.1875 1.851562 -9.738281 1.5 -10.375 C 1.144531 -11.019531 0.96875 -11.820312 0.96875 -12.78125 C 0.96875 -14.519531 1.5 -15.832031 2.5625 -16.71875 C 3.625 -17.613281 5.109375 -18.0625 7.015625 -18.0625 C 7.765625 -18.0625 8.539062 -18.007812 9.34375 -17.90625 C 10.144531 -17.8125 11.316406 -17.628906 12.859375 -17.359375 L 12.578125 -14.515625 C 10.191406 -14.785156 8.460938 -14.921875 7.390625 -14.921875 C 5.492188 -14.921875 4.546875 -14.296875 4.546875 -13.046875 C 4.546875 -12.609375 4.703125 -12.25 5.015625 -11.96875 C 5.328125 -11.695312 5.71875 -11.46875 6.1875 -11.28125 C 6.65625 -11.101562 7.445312 -10.835938 8.5625 -10.484375 C 9.757812 -10.109375 10.6875 -9.707031 11.34375 -9.28125 C 12.007812 -8.863281 12.488281 -8.347656 12.78125 -7.734375 C 13.082031 -7.117188 13.234375 -6.320312 13.234375 -5.34375 C 13.234375 -3.519531 12.679688 -2.117188 11.578125 -1.140625 C 10.472656 -0.171875 8.976562 0.3125 7.09375 0.3125 Z M 7.09375 0.3125 "/></g></g><g style="fill:#ffffff;fill-opacity:1;"><g transform="translate(85.682036, 100.230519)"><path style="stroke:none" d="M 5.53125 -14.609375 L 5.53125 -10.46875 L 11.84375 -10.46875 L 11.84375 -7.390625 L 5.53125 -7.390625 L 5.53125 -3.125 L 13.40625 -3.125 L 13.40625 0 L 1.9375 0 L 1.9375 -17.75 L 13.40625 -17.75 L 13.40625 -14.609375 Z M 5.53125 -14.609375 "/></g></g><g style="fill:#ffffff;fill-opacity:1;"><g transform="translate(100.133634, 100.230519)"><path style="stroke:none" d="M 1.9375 -17.75 L 8.8125 -17.75 C 12.988281 -17.75 15.078125 -15.800781 15.078125 -11.90625 C 15.078125 -9.582031 14.207031 -7.875 12.46875 -6.78125 L 15 0 L 11.0625 0 L 9 -5.953125 L 5.53125 -5.953125 L 5.53125 0 L 1.9375 0 Z M 8.875 -9.03125 C 9.6875 -9.03125 10.3125 -9.285156 10.75 -9.796875 C 11.1875 -10.304688 11.40625 -11 11.40625 -11.875 C 11.40625 -12.738281 11.175781 -13.421875 10.71875 -13.921875 C 10.269531 -14.421875 9.632812 -14.671875 8.8125 -14.671875 L 5.53125 -14.671875 L 5.53125 -9.03125 Z M 8.875 -9.03125 "/></g></g><g style="fill:#ffffff;fill-opacity:1;"><g transform="translate(116.072072, 100.230519)"><path style="stroke:none" d="M 0.421875 -17.75 L 4.203125 -17.75 L 7.28125 -3.125 L 8.453125 -3.125 L 11.53125 -17.75 L 15.3125 -17.75 L 11.1875 0 L 4.546875 0 Z M 0.421875 -17.75 "/></g></g><g style="fill:#ffffff;fill-opacity:1;"><g transform="translate(131.801872, 100.230519)"><path style="stroke:none" d="M 1.9375 -17.75 L 5.53125 -17.75 L 5.53125 0 L 1.9375 0 Z M 1.9375 -17.75 "/></g></g><g style="fill:#ffffff;fill-opacity:1;"><g transform="translate(139.262446, 100.230519)"><path style="stroke:none" d="M 8.1875 0.3125 C 6.3125 0.3125 4.867188 -0.015625 3.859375 -0.671875 C 2.847656 -1.335938 2.15625 -2.316406 1.78125 -3.609375 C 1.40625 -4.910156 1.21875 -6.640625 1.21875 -8.796875 C 1.21875 -11.160156 1.421875 -13.003906 1.828125 -14.328125 C 2.242188 -15.648438 2.929688 -16.601562 3.890625 -17.1875 C 4.847656 -17.769531 6.1875 -18.0625 7.90625 -18.0625 C 9.488281 -18.0625 11.253906 -17.828125 13.203125 -17.359375 L 13.09375 -14.484375 C 11.375 -14.742188 9.972656 -14.875 8.890625 -14.875 C 7.796875 -14.875 6.96875 -14.695312 6.40625 -14.34375 C 5.851562 -14 5.46875 -13.429688 5.25 -12.640625 C 5.039062 -11.847656 4.9375 -10.734375 4.9375 -9.296875 L 4.9375 -8.328125 C 4.96875 -6.828125 5.070312 -5.707031 5.25 -4.96875 C 5.4375 -4.226562 5.800781 -3.691406 6.34375 -3.359375 C 6.882812 -3.035156 7.707031 -2.875 8.8125 -2.875 C 10 -2.875 11.425781 -2.992188 13.09375 -3.234375 L 13.171875 -0.28125 C 11.273438 0.113281 9.613281 0.3125 8.1875 0.3125 Z M 8.1875 0.3125 "/></g></g><g style="fill:#ffffff;fill-opacity:1;"><g transform="translate(153.427095, 100.230519)"><path style="stroke:none" d="M 5.53125 -14.609375 L 5.53125 -10.46875 L 11.84375 -10.46875 L 11.84375 -7.390625 L 5.53125 -7.390625 L 5.53125 -3.125 L 13.40625 -3.125 L 13.40625 0 L 1.9375 0 L 1.9375 -17.75 L 13.40625 -17.75 L 13.40625 -14.609375 Z M 5.53125 -14.609375 "/></g></g><g style="fill:#ffffff;fill-opacity:1;"><g transform="translate(41.409265, 136.230516)"><path style="stroke:none" d="M 8.1875 0.3125 C 6.3125 0.3125 4.867188 -0.015625 3.859375 -0.671875 C 2.847656 -1.335938 2.15625 -2.316406 1.78125 -3.609375 C 1.40625 -4.910156 1.21875 -6.640625 1.21875 -8.796875 C 1.21875 -11.160156 1.421875 -13.003906 1.828125 -14.328125 C 2.242188 -15.648438 2.929688 -16.601562 3.890625 -17.1875 C 4.847656 -17.769531 6.1875 -18.0625 7.90625 -18.0625 C 9.488281 -18.0625 11.253906 -17.828125 13.203125 -17.359375 L 13.09375 -14.484375 C 11.375 -14.742188 9.972656 -14.875 8.890625 -14.875 C 7.796875 -14.875 6.96875 -14.695312 6.40625 -14.34375 C 5.851562 -14 5.46875 -13.429688 5.25 -12.640625 C 5.039062 -11.847656 4.9375 -10.734375 4.9375 -9.296875 L 4.9375 -8.328125 C 4.96875 -6.828125 5.070312 -5.707031 5.25 -4.96875 C 5.4375 -4.226562 5.800781 -3.691406 6.34375 -3.359375 C 6.882812 -3.035156 7.707031 -2.875 8.8125 -2.875 C 10 -2.875 11.425781 -2.992188 13.09375 -3.234375 L 13.171875 -0.28125 C 11.273438 0.113281 9.613281 0.3125 8.1875 0.3125 Z M 8.1875 0.3125 "/></g></g><g style="fill:#ffffff;fill-opacity:1;"><g transform="translate(55.573914, 136.230516)"><path style="stroke:none" d="M 10.953125 -3.203125 L 4.75 -3.203125 L 4.046875 0 L 0.4375 0 L 4.4375 -17.75 L 11.265625 -17.75 L 15.265625 0 L 11.65625 0 Z M 8.484375 -14.765625 L 7.234375 -14.765625 L 5.421875 -6.34375 L 10.28125 -6.34375 Z M 8.484375 -14.765625 "/></g></g><g style="fill:#ffffff;fill-opacity:1;"><g transform="translate(71.277633, 136.230516)"><path style="stroke:none" d="M 12.03125 -3.1875 L 12.03125 0 L 1.9375 0 L 1.9375 -17.75 L 5.53125 -17.75 L 5.53125 -3.1875 Z M 12.03125 -3.1875 "/></g></g><g style="fill:#ffffff;fill-opacity:1;"><g transform="translate(83.590182, 136.230516)"><path style="stroke:none" d="M 12.03125 -3.1875 L 12.03125 0 L 1.9375 0 L 1.9375 -17.75 L 5.53125 -17.75 L 5.53125 -3.1875 Z M 12.03125 -3.1875 "/></g></g><g style="fill:#ffffff;fill-opacity:1;"><g transform="translate(95.902731, 136.230516)"><path style="stroke:none" d=""/></g></g><g style="fill:#ffffff;fill-opacity:1;"><g transform="translate(101.641633, 136.230516)"><path style="stroke:none" d="M 8.53125 0.3125 C 6.25 0.3125 4.550781 -0.195312 3.4375 -1.21875 C 2.332031 -2.25 1.78125 -3.84375 1.78125 -6 L 1.78125 -17.75 L 5.375 -17.75 L 5.375 -5.921875 C 5.375 -3.847656 6.425781 -2.8125 8.53125 -2.8125 C 10.632812 -2.8125 11.6875 -3.847656 11.6875 -5.921875 L 11.6875 -17.75 L 15.296875 -17.75 L 15.296875 -6 C 15.296875 -3.84375 14.738281 -2.25 13.625 -1.21875 C 12.507812 -0.195312 10.8125 0.3125 8.53125 0.3125 Z M 8.53125 0.3125 "/></g></g><g style="fill:#ffffff;fill-opacity:1;"><g transform="translate(118.701821, 136.230516)"><path style="stroke:none" d="M 7.09375 0.3125 C 5.738281 0.3125 4.078125 0.101562 2.109375 -0.3125 L 1.171875 -0.5 L 1.546875 -3.28125 C 3.867188 -2.96875 5.648438 -2.8125 6.890625 -2.8125 C 8.734375 -2.8125 9.65625 -3.578125 9.65625 -5.109375 C 9.65625 -5.734375 9.410156 -6.191406 8.921875 -6.484375 C 8.429688 -6.785156 7.613281 -7.101562 6.46875 -7.4375 C 5.09375 -7.820312 4.007812 -8.25 3.21875 -8.71875 C 2.425781 -9.1875 1.851562 -9.738281 1.5 -10.375 C 1.144531 -11.019531 0.96875 -11.820312 0.96875 -12.78125 C 0.96875 -14.519531 1.5 -15.832031 2.5625 -16.71875 C 3.625 -17.613281 5.109375 -18.0625 7.015625 -18.0625 C 7.765625 -18.0625 8.539062 -18.007812 9.34375 -17.90625 C 10.144531 -17.8125 11.316406 -17.628906 12.859375 -17.359375 L 12.578125 -14.515625 C 10.191406 -14.785156 8.460938 -14.921875 7.390625 -14.921875 C 5.492188 -14.921875 4.546875 -14.296875 4.546875 -13.046875 C 4.546875 -12.609375 4.703125 -12.25 5.015625 -11.96875 C 5.328125 -11.695312 5.71875 -11.46875 6.1875 -11.28125 C 6.65625 -11.101562 7.445312 -10.835938 8.5625 -10.484375 C 9.757812 -10.109375 10.6875 -9.707031 11.34375 -9.28125 C 12.007812 -8.863281 12.488281 -8.347656 12.78125 -7.734375 C 13.082031 -7.117188 13.234375 -6.320312 13.234375 -5.34375 C 13.234375 -3.519531 12.679688 -2.117188 11.578125 -1.140625 C 10.472656 -0.171875 8.976562 0.3125 7.09375 0.3125 Z M 7.09375 0.3125 "/></g></g><g style="fill:#ffffff;fill-opacity:1;"><g transform="translate(132.892562, 136.230516)"><path style="stroke:none" d=""/></g></g><g style="fill:#ffffff;fill-opacity:1;"><g transform="translate(138.631465, 136.230516)"><path style="stroke:none" d="M 16.15625 -17.75 L 16.15625 0 L 10.234375 0 L 5.796875 -14.609375 L 5.53125 -14.609375 L 5.53125 0 L 1.9375 0 L 1.9375 -17.75 L 8.015625 -17.75 L 12.296875 -3.125 L 12.546875 -3.125 L 12.546875 -17.75 Z M 16.15625 -17.75 "/></g></g><g style="fill:#ffffff;fill-opacity:1;"><g transform="translate(156.708997, 136.230516)"><path style="stroke:none" d="M 8.5 0.3125 C 6.707031 0.3125 5.269531 -0.0078125 4.1875 -0.65625 C 3.113281 -1.300781 2.335938 -2.285156 1.859375 -3.609375 C 1.378906 -4.941406 1.140625 -6.671875 1.140625 -8.796875 C 1.140625 -10.929688 1.378906 -12.671875 1.859375 -14.015625 C 2.335938 -15.367188 3.113281 -16.378906 4.1875 -17.046875 C 5.269531 -17.722656 6.707031 -18.0625 8.5 -18.0625 C 10.289062 -18.0625 11.726562 -17.722656 12.8125 -17.046875 C 13.894531 -16.378906 14.671875 -15.367188 15.140625 -14.015625 C 15.617188 -12.671875 15.859375 -10.929688 15.859375 -8.796875 C 15.859375 -6.703125 15.628906 -4.992188 15.171875 -3.671875 C 14.710938 -2.359375 13.941406 -1.363281 12.859375 -0.6875 C 11.785156 -0.0195312 10.332031 0.3125 8.5 0.3125 Z M 8.5 -2.8125 C 9.445312 -2.8125 10.179688 -3.007812 10.703125 -3.40625 C 11.234375 -3.800781 11.609375 -4.425781 11.828125 -5.28125 C 12.046875 -6.144531 12.15625 -7.316406 12.15625 -8.796875 C 12.15625 -10.273438 12.039062 -11.453125 11.8125 -12.328125 C 11.59375 -13.203125 11.21875 -13.851562 10.6875 -14.28125 C 10.15625 -14.707031 9.425781 -14.921875 8.5 -14.921875 C 7.582031 -14.921875 6.859375 -14.707031 6.328125 -14.28125 C 5.796875 -13.851562 5.414062 -13.203125 5.1875 -12.328125 C 4.96875 -11.453125 4.859375 -10.273438 4.859375 -8.796875 C 4.859375 -7.421875 4.953125 -6.304688 5.140625 -5.453125 C 5.328125 -4.597656 5.6875 -3.941406 6.21875 -3.484375 C 6.75 -3.035156 7.507812 -2.8125 8.5 -2.8125 Z M 8.5 -2.8125 "/></g></g><g style="fill:#ffffff;fill-opacity:1;"><g transform="translate(173.717011, 136.230516)"><path style="stroke:none" d="M 0.5 -17.75 L 4.28125 -17.75 L 6.46875 -3.078125 L 6.859375 -3.078125 L 10.046875 -17.75 L 14.21875 -17.75 L 17.40625 -3.078125 L 17.796875 -3.078125 L 19.984375 -17.75 L 23.765625 -17.75 L 20.375 0 L 14.921875 0 L 12.140625 -13.484375 L 9.34375 0 L 3.890625 0 Z M 0.5 -17.75 "/></g></g><g style="fill:#ffffff;fill-opacity:1;"><g transform="translate(27.96786, 172.230514)"><path style="stroke:none" d="M 4.015625 3.265625 C 3.203125 2.023438 2.492188 0.320312 1.890625 -1.84375 C 1.285156 -4.019531 0.984375 -6.023438 0.984375 -7.859375 C 0.984375 -9.816406 1.265625 -11.835938 1.828125 -13.921875 C 2.398438 -16.015625 3.128906 -17.894531 4.015625 -19.5625 L 7.328125 -19.5625 C 6.734375 -18.050781 6.171875 -16.09375 5.640625 -13.6875 C 5.117188 -11.28125 4.859375 -9.335938 4.859375 -7.859375 C 4.859375 -4.828125 5.679688 -1.117188 7.328125 3.265625 Z M 4.015625 3.265625 "/></g></g><g style="fill:#ffffff;fill-opacity:1;"><g transform="translate(36.002321, 172.230514)"><path style="stroke:none" d="M 6.46875 0.3125 C 5.082031 0.3125 3.628906 0.117188 2.109375 -0.265625 L 1.296875 -0.4375 L 1.625 -3.203125 C 3.394531 -2.941406 5.007812 -2.8125 6.46875 -2.8125 C 8.78125 -2.8125 9.9375 -4.222656 9.9375 -7.046875 C 9.070312 -6.765625 8.394531 -6.5625 7.90625 -6.4375 C 7.414062 -6.320312 7 -6.265625 6.65625 -6.265625 C 4.738281 -6.265625 3.269531 -6.726562 2.25 -7.65625 C 1.238281 -8.582031 0.734375 -9.953125 0.734375 -11.765625 C 0.734375 -13.597656 1.300781 -15.015625 2.4375 -16.015625 C 3.582031 -17.023438 5.1875 -17.53125 7.25 -17.53125 C 9.34375 -17.53125 10.929688 -16.753906 12.015625 -15.203125 C 13.097656 -13.660156 13.640625 -11.382812 13.640625 -8.375 C 13.640625 -5.382812 13.039062 -3.1875 11.84375 -1.78125 C 10.644531 -0.382812 8.851562 0.3125 6.46875 0.3125 Z M 6.96875 -9.390625 C 7.769531 -9.390625 8.628906 -9.546875 9.546875 -9.859375 L 9.96875 -10 C 9.96875 -12.9375 8.992188 -14.40625 7.046875 -14.40625 C 6.210938 -14.40625 5.566406 -14.171875 5.109375 -13.703125 C 4.660156 -13.242188 4.4375 -12.597656 4.4375 -11.765625 C 4.4375 -10.179688 5.28125 -9.390625 6.96875 -9.390625 Z M 6.96875 -9.390625 "/></g></g><g style="fill:#ffffff;fill-opacity:1;"><g transform="translate(50.610429, 172.230514)"><path style="stroke:none" d="M 7.3125 -13.15625 L 3.578125 -10.75 L 1.9375 -13.4375 L 7.625 -17.21875 L 10.90625 -17.21875 L 10.90625 0 L 7.3125 0 Z M 7.3125 -13.15625 "/></g></g><g style="fill:#ffffff;fill-opacity:1;"><g transform="translate(65.218536, 172.230514)"><path style="stroke:none" d="M 6.46875 0.3125 C 5.082031 0.3125 3.628906 0.117188 2.109375 -0.265625 L 1.296875 -0.4375 L 1.625 -3.203125 C 3.394531 -2.941406 5.007812 -2.8125 6.46875 -2.8125 C 8.78125 -2.8125 9.9375 -4.222656 9.9375 -7.046875 C 9.070312 -6.765625 8.394531 -6.5625 7.90625 -6.4375 C 7.414062 -6.320312 7 -6.265625 6.65625 -6.265625 C 4.738281 -6.265625 3.269531 -6.726562 2.25 -7.65625 C 1.238281 -8.582031 0.734375 -9.953125 0.734375 -11.765625 C 0.734375 -13.597656 1.300781 -15.015625 2.4375 -16.015625 C 3.582031 -17.023438 5.1875 -17.53125 7.25 -17.53125 C 9.34375 -17.53125 10.929688 -16.753906 12.015625 -15.203125 C 13.097656 -13.660156 13.640625 -11.382812 13.640625 -8.375 C 13.640625 -5.382812 13.039062 -3.1875 11.84375 -1.78125 C 10.644531 -0.382812 8.851562 0.3125 6.46875 0.3125 Z M 6.96875 -9.390625 C 7.769531 -9.390625 8.628906 -9.546875 9.546875 -9.859375 L 9.96875 -10 C 9.96875 -12.9375 8.992188 -14.40625 7.046875 -14.40625 C 6.210938 -14.40625 5.566406 -14.171875 5.109375 -13.703125 C 4.660156 -13.242188 4.4375 -12.597656 4.4375 -11.765625 C 4.4375 -10.179688 5.28125 -9.390625 6.96875 -9.390625 Z M 6.96875 -9.390625 "/></g></g><g style="fill:#ffffff;fill-opacity:1;"><g transform="translate(79.826644, 172.230514)"><path style="stroke:none" d="M 0.703125 3.265625 C 2.359375 -1.117188 3.1875 -4.828125 3.1875 -7.859375 C 3.1875 -9.347656 2.921875 -11.300781 2.390625 -13.71875 C 1.859375 -16.144531 1.296875 -18.09375 0.703125 -19.5625 L 4.015625 -19.5625 C 4.941406 -17.738281 5.675781 -15.800781 6.21875 -13.75 C 6.769531 -11.695312 7.046875 -9.734375 7.046875 -7.859375 C 7.046875 -5.992188 6.738281 -3.976562 6.125 -1.8125 C 5.519531 0.351562 4.816406 2.046875 4.015625 3.265625 Z M 0.703125 3.265625 "/></g></g><g style="fill:#ffffff;fill-opacity:1;"><g transform="translate(87.861105, 172.230514)"><path style="stroke:none" d="M 1.46875 -8.53125 L 9.1875 -8.53125 L 9.1875 -5.34375 L 1.46875 -5.34375 Z M 1.46875 -8.53125 "/></g></g><g style="fill:#ffffff;fill-opacity:1;"><g transform="translate(98.504156, 172.230514)"><path style="stroke:none" d="M 3.34375 -0.625 L 9.21875 -13.171875 L 9.21875 -14.015625 L 1.796875 -14.015625 L 1.796875 -17.21875 L 12.8125 -17.21875 L 12.8125 -13.15625 L 6.6875 0.3125 Z M 3.34375 -0.625 "/></g></g><g style="fill:#ffffff;fill-opacity:1;"><g transform="translate(113.112264, 172.230514)"><path style="stroke:none" d="M 6.46875 0.3125 C 5.082031 0.3125 3.628906 0.117188 2.109375 -0.265625 L 1.296875 -0.4375 L 1.625 -3.203125 C 3.394531 -2.941406 5.007812 -2.8125 6.46875 -2.8125 C 8.78125 -2.8125 9.9375 -4.222656 9.9375 -7.046875 C 9.070312 -6.765625 8.394531 -6.5625 7.90625 -6.4375 C 7.414062 -6.320312 7 -6.265625 6.65625 -6.265625 C 4.738281 -6.265625 3.269531 -6.726562 2.25 -7.65625 C 1.238281 -8.582031 0.734375 -9.953125 0.734375 -11.765625 C 0.734375 -13.597656 1.300781 -15.015625 2.4375 -16.015625 C 3.582031 -17.023438 5.1875 -17.53125 7.25 -17.53125 C 9.34375 -17.53125 10.929688 -16.753906 12.015625 -15.203125 C 13.097656 -13.660156 13.640625 -11.382812 13.640625 -8.375 C 13.640625 -5.382812 13.039062 -3.1875 11.84375 -1.78125 C 10.644531 -0.382812 8.851562 0.3125 6.46875 0.3125 Z M 6.96875 -9.390625 C 7.769531 -9.390625 8.628906 -9.546875 9.546875 -9.859375 L 9.96875 -10 C 9.96875 -12.9375 8.992188 -14.40625 7.046875 -14.40625 C 6.210938 -14.40625 5.566406 -14.171875 5.109375 -13.703125 C 4.660156 -13.242188 4.4375 -12.597656 4.4375 -11.765625 C 4.4375 -10.179688 5.28125 -9.390625 6.96875 -9.390625 Z M 6.96875 -9.390625 "/></g></g><g style="fill:#ffffff;fill-opacity:1;"><g transform="translate(127.720371, 172.230514)"><path style="stroke:none" d="M 7.015625 0.3125 C 5.660156 0.3125 4.097656 0.0859375 2.328125 -0.359375 L 1.484375 -0.578125 L 1.671875 -3.3125 C 3.585938 -2.976562 5.132812 -2.8125 6.3125 -2.8125 C 7.320312 -2.8125 8.066406 -2.988281 8.546875 -3.34375 C 9.023438 -3.707031 9.265625 -4.242188 9.265625 -4.953125 C 9.265625 -5.679688 9.035156 -6.242188 8.578125 -6.640625 C 8.128906 -7.035156 7.523438 -7.234375 6.765625 -7.234375 L 3.28125 -7.234375 L 3.28125 -10.203125 L 6.765625 -10.203125 C 7.335938 -10.203125 7.84375 -10.441406 8.28125 -10.921875 C 8.726562 -11.410156 8.953125 -11.976562 8.953125 -12.625 C 8.953125 -13.238281 8.71875 -13.6875 8.25 -13.96875 C 7.789062 -14.257812 7.066406 -14.40625 6.078125 -14.40625 C 5.265625 -14.40625 4.082031 -14.28125 2.53125 -14.03125 L 1.859375 -13.9375 L 1.625 -16.59375 C 3.21875 -17.21875 4.972656 -17.53125 6.890625 -17.53125 C 8.890625 -17.53125 10.347656 -17.160156 11.265625 -16.421875 C 12.191406 -15.679688 12.65625 -14.515625 12.65625 -12.921875 C 12.65625 -11.972656 12.492188 -11.191406 12.171875 -10.578125 C 11.847656 -9.960938 11.335938 -9.410156 10.640625 -8.921875 C 11.253906 -8.585938 11.722656 -8.273438 12.046875 -7.984375 C 12.367188 -7.691406 12.601562 -7.320312 12.75 -6.875 C 12.894531 -6.425781 12.96875 -5.835938 12.96875 -5.109375 C 12.96875 -3.265625 12.492188 -1.898438 11.546875 -1.015625 C 10.597656 -0.128906 9.085938 0.3125 7.015625 0.3125 Z M 7.015625 0.3125 "/></g></g><g style="fill:#ffffff;fill-opacity:1;"><g transform="translate(142.328479, 172.230514)"><path style="stroke:none" d="M 1.46875 -8.53125 L 9.1875 -8.53125 L 9.1875 -5.34375 L 1.46875 -5.34375 Z M 1.46875 -8.53125 "/></g></g><g style="fill:#ffffff;fill-opacity:1;"><g transform="translate(152.971529, 172.230514)"><path style="stroke:none" d="M 7.40625 0.3125 C 6.65625 0.3125 5.769531 0.238281 4.75 0.09375 C 3.738281 -0.0507812 2.90625 -0.222656 2.25 -0.421875 L 1.296875 -0.65625 L 1.703125 -3.3125 C 3.753906 -2.976562 5.507812 -2.8125 6.96875 -2.8125 C 7.820312 -2.8125 8.472656 -3.035156 8.921875 -3.484375 C 9.378906 -3.941406 9.609375 -4.597656 9.609375 -5.453125 C 9.609375 -7.054688 8.875 -7.859375 7.40625 -7.859375 C 6.207031 -7.859375 5.179688 -7.742188 4.328125 -7.515625 L 3.9375 -7.40625 L 1.796875 -7.90625 L 2.265625 -17.21875 L 12.78125 -17.21875 L 12.78125 -14.09375 L 5.09375 -14.09375 L 4.640625 -10.359375 C 5.722656 -10.773438 6.75 -10.984375 7.71875 -10.984375 C 11.445312 -10.984375 13.3125 -9.253906 13.3125 -5.796875 C 13.3125 -3.847656 12.796875 -2.34375 11.765625 -1.28125 C 10.742188 -0.21875 9.289062 0.3125 7.40625 0.3125 Z M 7.40625 0.3125 "/></g></g><g style="fill:#ffffff;fill-opacity:1;"><g transform="translate(167.579637, 172.230514)"><path style="stroke:none" d="M 1.703125 -3.046875 L 5.375 -6.78125 C 6.332031 -7.769531 7.046875 -8.539062 7.515625 -9.09375 C 7.984375 -9.65625 8.328125 -10.171875 8.546875 -10.640625 C 8.765625 -11.109375 8.875 -11.613281 8.875 -12.15625 C 8.875 -12.9375 8.664062 -13.492188 8.25 -13.828125 C 7.84375 -14.171875 7.234375 -14.34375 6.421875 -14.34375 C 5.273438 -14.34375 4.003906 -14.238281 2.609375 -14.03125 L 1.984375 -13.953125 L 1.796875 -16.75 C 3.503906 -17.269531 5.269531 -17.53125 7.09375 -17.53125 C 10.75 -17.53125 12.578125 -15.890625 12.578125 -12.609375 C 12.578125 -11.734375 12.457031 -10.960938 12.21875 -10.296875 C 11.988281 -9.628906 11.597656 -8.953125 11.046875 -8.265625 C 10.503906 -7.578125 9.726562 -6.769531 8.71875 -5.84375 L 5.71875 -3.125 L 12.859375 -3.125 L 12.859375 0 L 1.703125 0 Z M 1.703125 -3.046875 "/></g></g><g style="fill:#ffffff;fill-opacity:1;"><g transform="translate(182.187744, 172.230514)"><path style="stroke:none" d="M 7.3125 -13.15625 L 3.578125 -10.75 L 1.9375 -13.4375 L 7.625 -17.21875 L 10.90625 -17.21875 L 10.90625 0 L 7.3125 0 Z M 7.3125 -13.15625 "/></g></g><g style="fill:#ffffff;fill-opacity:1;"><g transform="translate(196.795852, 172.230514)"><path style="stroke:none" d="M 7.015625 0.3125 C 5.660156 0.3125 4.097656 0.0859375 2.328125 -0.359375 L 1.484375 -0.578125 L 1.671875 -3.3125 C 3.585938 -2.976562 5.132812 -2.8125 6.3125 -2.8125 C 7.320312 -2.8125 8.066406 -2.988281 8.546875 -3.34375 C 9.023438 -3.707031 9.265625 -4.242188 9.265625 -4.953125 C 9.265625 -5.679688 9.035156 -6.242188 8.578125 -6.640625 C 8.128906 -7.035156 7.523438 -7.234375 6.765625 -7.234375 L 3.28125 -7.234375 L 3.28125 -10.203125 L 6.765625 -10.203125 C 7.335938 -10.203125 7.84375 -10.441406 8.28125 -10.921875 C 8.726562 -11.410156 8.953125 -11.976562 8.953125 -12.625 C 8.953125 -13.238281 8.71875 -13.6875 8.25 -13.96875 C 7.789062 -14.257812 7.066406 -14.40625 6.078125 -14.40625 C 5.265625 -14.40625 4.082031 -14.28125 2.53125 -14.03125 L 1.859375 -13.9375 L 1.625 -16.59375 C 3.21875 -17.21875 4.972656 -17.53125 6.890625 -17.53125 C 8.890625 -17.53125 10.347656 -17.160156 11.265625 -16.421875 C 12.191406 -15.679688 12.65625 -14.515625 12.65625 -12.921875 C 12.65625 -11.972656 12.492188 -11.191406 12.171875 -10.578125 C 11.847656 -9.960938 11.335938 -9.410156 10.640625 -8.921875 C 11.253906 -8.585938 11.722656 -8.273438 12.046875 -7.984375 C 12.367188 -7.691406 12.601562 -7.320312 12.75 -6.875 C 12.894531 -6.425781 12.96875 -5.835938 12.96875 -5.109375 C 12.96875 -3.265625 12.492188 -1.898438 11.546875 -1.015625 C 10.597656 -0.128906 9.085938 0.3125 7.015625 0.3125 Z M 7.015625 0.3125 "/></g></g></g></svg>